PathFileType	4	(X/Y/Z)	Run_300 01
DataRate	CameraRate	NumFrames	NumMarkers	Units	OrigDataRate	OrigDataStartFrame	OrigNumFrames
120	120	5	42	mm	120	210	128
Frame#	Time	LASI			RASI			LPSI			RPSI			RTH1			RTH3			LTH1			LTH2			LTH3			RTB1			RTB2			RTB3			LTB1			LTB2			LTB3			RCAL			RTOE			RMT5			LCAL			LTOE			LMT5			LACR			RACR			CLAV			C7			RUA1			RUA2			RUA3			RLEL			RMEL			LUA1			LUA2			LUA3			LLEL			LMEL			RFAsuperior			RFAradius			RFAulna			LFAsuperior			LFAradius			LFAulna			RTH2			
		X1	Y1	Z1	X2	Y2	Z2	X3	Y3	Z3	X4	Y4	Z4	X5	Y5	Z5	X6	Y6	Z6	X7	Y7	Z7	X8	Y8	Z8	X9	Y9	Z9	X10	Y10	Z10	X11	Y11	Z11	X12	Y12	Z12	X13	Y13	Z13	X14	Y14	Z14	X15	Y15	Z15	X16	Y16	Z16	X17	Y17	Z17	X18	Y18	Z18	X19	Y19	Z19	X20	Y20	Z20	X21	Y21	Z21	X22	Y22	Z22	X23	Y23	Z23	X24	Y24	Z24	X25	Y25	Z25	X26	Y26	Z26	X27	Y27	Z27	X28	Y28	Z28	X29	Y29	Z29	X30	Y30	Z30	X31	Y31	Z31	X32	Y32	Z32	X33	Y33	Z33	X34	Y34	Z34	X35	Y35	Z35	X36	Y36	Z36	X37	Y37	Z37	X38	Y38	Z38	X39	Y39	Z39	X40	Y40	Z40	X41	Y41	Z41	X42	Y42	Z42	

196	1.775	1096.388453	956.143938	-437.069861	1084.311675	965.216638	-195.689956	926.77516	999.319318	-383.021024	920.414044	1002.001352	-284.598545	1018.473751	805.603897	-152.562758	1032.37855	567.402406	-207.084283	1074.952358	794.11993	-499.106866	1200.590855	745.843557	-487.583136	1197.187581	611.305644	-481.193316	1028.957609	337.327953	-282.430796	954.524614	310.901768	-226.328267	912.787295	197.54048	-295.097149	1172.504986	438.714408	-423.010475	1064.387421	452.245263	-464.523332	981.518188	395.986931	-400.106405	726.0227640000001	114.900521	-316.850286	933.693308	73.881513	-340.85438	913.555087	44.977527	-233.704797	824.403764	468.896253	-378.885395	870.642474	266.398619	-362.881154	837.216679	274.45533	-466.495717	1058.188487	1448.179357	-485.853589	1090.030428	1415.81651	-119.325696	1149.12293	1383.146977	-289.13217	1037.089288	1473.873309	-307.352192	1060.52809	1326.64974	-81.36051399999999	1059.544645	1238.300316	-99.031981	971.093072	1243.9888	-81.75913300000001	939.910564	1132.844136	-63.970192	919.8939329999999	1131.86122	-129.711558	1002.611179	1389.600654	-532.485891	935.5048829999999	1353.558516	-492.487946	956.032976	1297.512368	-553.087166	849.8302200000001	1235.000498	-573.481705	830.9481050000001	1233.179453	-502.56204	1028.639549	1090.070514	-62.88146	1159.869647	979.640003	-110.197058	1109.147482	931.750151	-117.722189	917.770752	1181.538271	-577.089183	1055.038169	1051.61201	-510.902209	999.987815	1017.171637	-535.845386	1092.57283	662.218614	-182.720341	
197	1.783333	1096.233711	961.663014	-437.004654	1085.141072	967.9161779999999	-195.358136	927.111952	1004.850106	-382.420368	921.274367	1007.199353	-284.219766	1014.240166	809.840609	-153.079892	1018.575711	571.607706	-206.984318	1077.230064	801.30384	-500.149555	1204.257132	757.561821	-487.869486	1205.479997	623.456833	-482.711708	1008.752376	340.458151	-281.858172	934.067989	315.246413	-225.816785	891.550406	201.991878	-293.302075	1188.75203	445.689592	-423.279698	1079.596934	452.287676	-464.66666	1000.547478	390.271014	-400.354439	703.7790199999999	122.649399	-314.849595	909.357161	74.86613	-340.305614	888.251034	44.662225	-233.765083	838.315416	451.912274	-378.7662	899.749221	253.407793	-363.721013	865.6497450000001	259.398136	-467.269907	1054.549383	1454.172637	-485.645832	1093.291739	1422.403704	-120.231954	1149.263075	1389.158285	-291.196739	1036.857505	1479.123318	-307.376307	1065.145445	1333.059508	-81.84489499999999	1065.009525	1244.881325	-98.772228	976.529631	1249.585721	-80.149415	946.7547070000001	1137.914421	-62.293882	925.334442	1136.076325	-127.785911	997.45258	1397.114387	-531.235225	930.833431	1361.553917	-489.677799	949.267694	1305.586959	-551.267053	841.585161	1244.404901	-568.877786	825.287185	1242.082371	-497.182193	1037.272125	1098.284658	-62.416478	1172.65117	995.136164	-113.917956	1124.399219	945.127144	-119.814906	909.149399	1191.124565	-575.448371	1048.861845	1061.204341	-515.515413	993.28059	1026.621239	-538.332798	1082.57783	664.022966	-184.053126	
198	1.791667	1096.566872	968.055781	-436.881385	1086.433582	971.036455	-194.898887	928.0542830000001	1011.029375	-381.792427	922.580875	1013.052105	-283.490496	1010.57721	814.788242	-153.708211	1005.498376	577.1049829999999	-206.839999	1079.914909	809.328393	-501.303814	1207.723109	769.659044	-487.870933	1212.790214	635.869816	-484.14741	989.094697	345.064135	-281.481535	914.333652	320.602608	-225.446146	871.021199	207.681414	-291.642785	1204.16115	452.864962	-423.239982	1094.363455	451.802894	-464.74564	1019.518489	384.246973	-400.540358	682.686774	131.822917	-312.73915	885.435033	75.83650900000001	-339.579481	863.1229980000001	44.607041	-233.529979	853.166138	433.687408	-378.814666	929.7964480000001	240.398083	-364.229628	895.512922	243.962433	-467.472517	1051.112972	1460.968116	-485.401779	1096.282238	1429.578152	-121.444139	1149.461135	1396.000113	-293.339471	1036.733555	1485.146621	-307.516814	1069.367848	1340.240672	-82.383921	1069.938493	1252.182211	-98.97393	981.698784	1256.076989	-78.372573	953.1781549999999	1144.04583	-60.381049	931.051513	1141.839454	-125.83392	992.631762	1405.486151	-530.056293	926.594694	1370.227762	-487.102093	943.116165	1314.403123	-549.4633669999999	834.25707	1254.457063	-564.514168	820.105693	1251.64365	-492.158025	1045.083379	1107.53225	-61.864462	1183.941711	1011.604403	-117.873614	1138.195904	959.672898	-121.853955	901.500814	1201.614313	-573.670577	1043.332591	1071.901123	-519.242046	987.492491	1037.166176	-540.731538	1073.401957	666.906168	-185.628428	
199	1.8	1097.292984	975.2063460000001	-436.828675	1088.202087	974.953393	-194.483323	929.49227	1017.795185	-381.174821	924.342639	1019.439608	-282.43168	1007.919277	820.288688	-154.376014	993.268449	583.7009880000001	-206.537477	1083.006003	818.3380979999999	-502.556348	1210.939321	781.914779	-487.542329	1219.030635	648.240145	-485.443765	970.257739	351.0382	-280.916777	895.428551	327.091712	-224.783596	851.376794	214.437524	-290.02603	1218.673732	459.755282	-422.742329	1108.82794	450.567131	-464.726186	1038.688087	377.890066	-400.66195	663.025209	142.338611	-310.65981	861.9983130000001	76.635114	-338.772384	838.236862	44.819967	-233.066596	869.099056	414.478997	-379.070611	960.783934	227.672482	-364.383272	926.863562	228.442149	-467.058354	1047.946334	1468.37911	-485.091341	1099.058198	1437.191915	-122.911138	1149.682138	1403.486014	-295.476828	1036.709485	1491.80049	-307.691602	1073.204613	1348.079413	-82.946524	1074.336061	1260.028261	-99.568995	986.553611	1263.296258	-76.659362	959.119987	1151.10099	-58.327771	936.981347	1148.918724	-123.959526	988.192043	1414.505013	-528.864227	922.879802	1379.464973	-484.722852	937.650852	1323.796405	-547.712961	827.813491	1264.93453	-560.417006	815.491362	1261.698723	-487.57387	1052.109924	1117.618553	-61.311679	1193.766297	1028.731405	-121.994976	1150.503082	974.975519	-123.784845	894.818587	1212.690716	-571.806527	1038.416992	1083.262302	-522.078759	982.467218	1048.390362	-542.907465	1065.163941	670.820849	-187.090776	
200	1.808333	1098.278628	983.045827	-436.933065	1090.398647	979.728125	-194.318275	931.191254	1025.055465	-380.507253	926.5746349999999	1026.184263	-281.145497	1006.442987	826.232624	-154.963454	981.935477	591.177695	-205.929347	1086.457628	828.383852	-503.900088	1213.801954	794.00285	-486.890578	1224.046622	660.14186	-486.449336	952.462117	358.161783	-279.761774	877.48848	334.791538	-223.386948	832.958297	221.993687	-288.149642	1232.266349	466.18703	-421.827927	1123.149547	448.519932	-464.618883	1058.277218	371.179135	-400.688612	645.045513	154.002011	-308.667718	839.083925	77.170517	-338.03113	813.64037	45.22299	-232.534083	886.2476349999999	394.52144	-379.567181	992.7149429999999	215.572136	-364.027318	959.556835	213.124711	-466.041706	1045.103876	1476.202995	-484.747291	1101.718725	1445.148167	-124.473632	1149.904432	1411.41291	-297.539273	1036.759001	1498.883564	-307.869414	1076.743473	1356.427903	-83.53430400000001	1078.258518	1268.25168	-100.372816	991.0502719999999	1271.119184	-75.123086	964.53907	1158.930737	-56.212447	942.678671	1156.898779	-122.121006	984.186728	1423.918957	-527.588473	919.7122419999999	1389.15213	-482.470421	932.848166	1333.573855	-546.061544	822.1231	1275.622185	-556.569218	811.4667930000001	1272.074387	-483.41856	1058.425772	1128.397682	-60.826452	1202.161639	1046.170233	-126.204224	1161.382651	990.680235	-125.57181	888.989316	1224.056516	-569.935216	1034.105953	1094.998448	-524.292748	978.117605	1059.938714	-544.751325	1057.746857	675.580456	-188.284796	
